<svg width="32" height="32" viewBox="0 0 32 32" fill="none" xmlns="http://www.w3.org/2000/svg">
<path d="M0 7.36C0 3.29518 3.29518 0 7.36 0H24.64C28.7048 0 32 3.29518 32 7.36V24.64C32 28.7048 28.7048 32 24.64 32H7.36C3.29518 32 0 28.7048 0 24.64V7.36Z" fill="url(#paint0_linear_108_41)"/>
<path d="M15.9688 22.112C15.2443 22.112 14.6131 21.9762 14.0752 21.7045C13.5483 21.4329 13.1367 21.0417 12.8403 20.531C12.5549 20.0095 12.4122 19.3956 12.4122 18.6893V13.3107C12.4122 12.5936 12.5549 11.9797 12.8403 11.469C13.1367 10.9583 13.5483 10.5671 14.0752 10.2955C14.6131 10.0238 15.2443 9.888 15.9688 9.888C16.6933 9.888 17.319 10.0293 17.8459 10.3118C18.3728 10.5834 18.7789 10.9746 19.0643 11.4853C19.3147 11.9332 19.4552 12.4564 19.486 13.0548C19.4932 13.196 19.3778 13.3107 19.2364 13.3107H18.2665C18.1251 13.3107 18.0118 13.1959 18.0013 13.0549C17.9601 12.5049 17.7821 12.0741 17.4672 11.7623C17.1159 11.3929 16.6164 11.2082 15.9688 11.2082C15.3211 11.2082 14.8107 11.3875 14.4375 11.746C14.0752 12.1046 13.8941 12.6207 13.8941 13.2944V18.6893C13.8941 19.363 14.0752 19.8845 14.4375 20.254C14.8107 20.6125 15.3211 20.7918 15.9688 20.7918C16.6164 20.7918 17.1159 20.6125 17.4672 20.254C17.7822 19.9327 17.9602 19.4964 18.0013 18.9451C18.0118 18.8041 18.1251 18.6893 18.2665 18.6893H19.2364C19.3778 18.6893 19.4932 18.804 19.4858 18.9452C19.4547 19.535 19.3142 20.0582 19.0643 20.5147C18.7789 21.0254 18.3728 21.422 17.8459 21.7045C17.319 21.9762 16.6933 22.112 15.9688 22.112Z" fill="url(#paint1_linear_108_41)"/>
<path d="M3.392 19.232C3.25062 19.232 3.136 19.1174 3.136 18.976V7.264C3.136 7.12262 3.25062 7.008 3.392 7.008H6.96935C7.70436 7.008 8.3489 7.15871 8.90298 7.46012C9.45707 7.75037 9.88676 8.15784 10.1921 8.68252C10.4974 9.2072 10.65 9.82119 10.65 10.5245C10.65 11.3506 10.4295 12.0595 9.98853 12.6511C9.61502 13.1654 9.12188 13.5406 8.50912 13.7765C8.36196 13.8332 8.28686 14.0023 8.3556 14.1442L10.6416 18.8644C10.724 19.0344 10.6001 19.232 10.4112 19.232H9.18612C9.08596 19.232 8.99499 19.1736 8.95332 19.0825L6.71547 14.1905C6.6738 14.0994 6.58284 14.041 6.48267 14.041H4.91855C4.77717 14.041 4.66255 14.1556 4.66255 14.297V18.976C4.66255 19.1174 4.54794 19.232 4.40655 19.232H3.392ZM4.66255 12.4286C4.66255 12.57 4.77717 12.6846 4.91855 12.6846H6.96935C7.60259 12.6846 8.11144 12.4893 8.4959 12.0985C8.88037 11.6967 9.0726 11.172 9.0726 10.5245C9.0726 9.86585 8.88037 9.34117 8.4959 8.95044C8.11144 8.55972 7.60259 8.36436 6.96935 8.36436H4.91855C4.77717 8.36436 4.66255 8.47898 4.66255 8.62036V12.4286Z" fill="url(#paint2_linear_108_41)"/>
<path d="M24.4395 24.992C24.3227 24.992 24.2208 24.913 24.1916 24.8L21.1659 13.088C21.1241 12.926 21.2464 12.768 21.4138 12.768H22.4457C22.5631 12.768 22.6655 12.8479 22.694 12.9617L24.7283 21.0736C24.8739 21.6541 24.9971 22.1956 25.0979 22.6979C25.1427 22.9163 25.4778 22.9172 25.5178 22.6979C25.6186 22.1956 25.7418 21.6541 25.8874 21.0736L27.9052 12.9622C27.9335 12.8481 28.036 12.768 28.1536 12.768H29.1511C29.3186 12.768 29.441 12.9262 29.3989 13.0884L26.3571 24.8004C26.3278 24.9132 26.2259 24.992 26.1093 24.992H24.4395Z" fill="url(#paint3_linear_108_41)"/>
<defs>
<linearGradient id="paint0_linear_108_41" x1="-4.064" y1="6.768" x2="30.096" y2="30.672" gradientUnits="userSpaceOnUse">
<stop offset="0.225" stop-color="#7B2BE1"/>
<stop offset="1" stop-color="#349EFF"/>
</linearGradient>
<linearGradient id="paint1_linear_108_41" x1="25.2826" y1="17.5097" x2="25.2826" y2="29.5923" gradientUnits="userSpaceOnUse">
<stop stop-color="white"/>
<stop offset="1" stop-color="#E3E3E3"/>
</linearGradient>
<linearGradient id="paint2_linear_108_41" x1="25.2826" y1="17.5097" x2="25.2826" y2="29.5923" gradientUnits="userSpaceOnUse">
<stop stop-color="white"/>
<stop offset="1" stop-color="#E3E3E3"/>
</linearGradient>
<linearGradient id="paint3_linear_108_41" x1="25.2826" y1="17.5097" x2="25.2826" y2="29.5923" gradientUnits="userSpaceOnUse">
<stop stop-color="white"/>
<stop offset="1" stop-color="#E3E3E3"/>
</linearGradient>
</defs>
</svg>
